<svg width="12" height="14" viewBox="0 0 12 14" fill="none" xmlns="http://www.w3.org/2000/svg">
<path d="M6 8.33331C5.81111 8.33331 5.65289 8.26931 5.52533 8.14131C5.39733 8.01376 5.33333 7.85553 5.33333 7.66665C5.33333 7.47776 5.39733 7.31931 5.52533 7.19131C5.65289 7.06376 5.81111 6.99998 6 6.99998C6.18889 6.99998 6.34733 7.06376 6.47533 7.19131C6.60289 7.31931 6.66667 7.47776 6.66667 7.66665C6.66667 7.85553 6.60289 8.01376 6.47533 8.14131C6.34733 8.26931 6.18889 8.33331 6 8.33331ZM3.33333 8.33331C3.14444 8.33331 2.986 8.26931 2.858 8.14131C2.73044 8.01376 2.66667 7.85553 2.66667 7.66665C2.66667 7.47776 2.73044 7.31931 2.858 7.19131C2.986 7.06376 3.14444 6.99998 3.33333 6.99998C3.52222 6.99998 3.68067 7.06376 3.80867 7.19131C3.93622 7.31931 4 7.47776 4 7.66665C4 7.85553 3.93622 8.01376 3.80867 8.14131C3.68067 8.26931 3.52222 8.33331 3.33333 8.33331ZM8.66667 8.33331C8.47778 8.33331 8.31956 8.26931 8.192 8.14131C8.064 8.01376 8 7.85553 8 7.66665C8 7.47776 8.064 7.31931 8.192 7.19131C8.31956 7.06376 8.47778 6.99998 8.66667 6.99998C8.85556 6.99998 9.01378 7.06376 9.14133 7.19131C9.26933 7.31931 9.33333 7.47776 9.33333 7.66665C9.33333 7.85553 9.26933 8.01376 9.14133 8.14131C9.01378 8.26931 8.85556 8.33331 8.66667 8.33331ZM6 11C5.81111 11 5.65289 10.936 5.52533 10.808C5.39733 10.6804 5.33333 10.5222 5.33333 10.3333C5.33333 10.1444 5.39733 9.9862 5.52533 9.85865C5.65289 9.73065 5.81111 9.66665 6 9.66665C6.18889 9.66665 6.34733 9.73065 6.47533 9.85865C6.60289 9.9862 6.66667 10.1444 6.66667 10.3333C6.66667 10.5222 6.60289 10.6804 6.47533 10.808C6.34733 10.936 6.18889 11 6 11ZM3.33333 11C3.14444 11 2.986 10.936 2.858 10.808C2.73044 10.6804 2.66667 10.5222 2.66667 10.3333C2.66667 10.1444 2.73044 9.9862 2.858 9.85865C2.986 9.73065 3.14444 9.66665 3.33333 9.66665C3.52222 9.66665 3.68067 9.73065 3.80867 9.85865C3.93622 9.9862 4 10.1444 4 10.3333C4 10.5222 3.93622 10.6804 3.80867 10.808C3.68067 10.936 3.52222 11 3.33333 11ZM8.66667 11C8.47778 11 8.31956 10.936 8.192 10.808C8.064 10.6804 8 10.5222 8 10.3333C8 10.1444 8.064 9.9862 8.192 9.85865C8.31956 9.73065 8.47778 9.66665 8.66667 9.66665C8.85556 9.66665 9.01378 9.73065 9.14133 9.85865C9.26933 9.9862 9.33333 10.1444 9.33333 10.3333C9.33333 10.5222 9.26933 10.6804 9.14133 10.808C9.01378 10.936 8.85556 11 8.66667 11ZM1.33333 13.6666C0.966667 13.6666 0.652667 13.5362 0.391333 13.2753C0.130444 13.014 0 12.7 0 12.3333V2.99998C0 2.63331 0.130444 2.31954 0.391333 2.05865C0.652667 1.79731 0.966667 1.66665 1.33333 1.66665H2V0.99998C2 0.811091 2.06378 0.652646 2.19133 0.524646C2.31933 0.397091 2.47778 0.333313 2.66667 0.333313C2.85556 0.333313 3.014 0.397091 3.142 0.524646C3.26956 0.652646 3.33333 0.811091 3.33333 0.99998V1.66665H8.66667V0.99998C8.66667 0.811091 8.73067 0.652646 8.85867 0.524646C8.98622 0.397091 9.14444 0.333313 9.33333 0.333313C9.52222 0.333313 9.68044 0.397091 9.808 0.524646C9.936 0.652646 10 0.811091 10 0.99998V1.66665H10.6667C11.0333 1.66665 11.3473 1.79731 11.6087 2.05865C11.8696 2.31954 12 2.63331 12 2.99998V12.3333C12 12.7 11.8696 13.014 11.6087 13.2753C11.3473 13.5362 11.0333 13.6666 10.6667 13.6666H1.33333ZM1.33333 12.3333H10.6667V5.66665H1.33333V12.3333Z" fill="#5630D3"/>
</svg>
