<svg width="20" height="20" viewBox="0 0 20 20" fill="none" xmlns="http://www.w3.org/2000/svg">
<path d="M10 0C4.47784 0 0 4.47784 0 10C0 15.5222 4.47784 20 10 20C15.5222 20 20 15.5222 20 10C20 4.47784 15.5222 0 10 0ZM14.6805 13.701C14.5402 13.9427 14.2857 14.0764 14.0266 14.0764C13.8972 14.0764 13.7677 14.044 13.6489 13.9749L10.2328 11.9982C9.54656 11.6011 9.12147 10.863 9.12147 10.0711V4.28148C9.12147 3.86495 9.46032 3.5261 9.87685 3.5261C10.2955 3.5261 10.6322 3.86495 10.6322 4.28148V10.0715C10.6322 10.3262 10.7704 10.5636 10.9905 10.6907L14.4045 12.6675C14.7647 12.8769 14.8898 13.3387 14.6806 13.7012L14.6805 13.701Z" fill="#5630D3"/>
</svg>
