<svg width="17" height="4" viewBox="0 0 17 4" fill="none" xmlns="http://www.w3.org/2000/svg">
<path d="M17 2.00015C17 1.06226 16.2419 0.304138 15.304 0.304138H15.287C14.3508 0.304138 13.5995 1.06226 13.5995 2.00015C13.5995 2.93805 14.3661 3.69617 15.304 3.69617C16.2419 3.69617 17 2.93805 17 2.00015Z" fill="#5630D3"/>
<path d="M10.1995 2.00015C10.1995 1.06226 9.44138 0.304138 8.50348 0.304138H8.48822C7.55032 0.304138 6.80068 1.06226 6.80068 2.00015C6.80068 2.93805 7.56559 3.69617 8.50348 3.69617C9.44138 3.69617 10.1995 2.93805 10.1995 2.00015Z" fill="#5630D3"/>
<path d="M3.40051 2.00015C3.40051 1.06226 2.64239 0.304138 1.7045 0.304138H1.68923C0.751335 0.304138 0 1.06226 0 2.00015C0 2.93805 0.766599 3.69617 1.7045 3.69617C2.64239 3.69617 3.40051 2.93805 3.40051 2.00015Z" fill="#5630D3"/>
</svg>
