<svg width="20" height="20" viewBox="0 0 20 20" fill="none" xmlns="http://www.w3.org/2000/svg">
<path d="M10 0C4.47716 0 0 4.47716 0 10C0 15.5228 4.47716 20 10 20C15.5228 20 20 15.5228 20 10C20 4.47716 15.5228 0 10 0ZM6.04655 5.5814C6.94556 5.5814 7.67442 6.31026 7.67442 7.20926C7.67442 8.10826 6.94556 8.83713 6.04655 8.83713C5.14755 8.83713 4.41869 8.10826 4.41869 7.20926C4.41869 6.31026 5.14755 5.5814 6.04655 5.5814ZM13.9535 5.5814C14.8525 5.5814 15.5814 6.31026 15.5814 7.20926C15.5814 8.10826 14.8525 8.83713 13.9535 8.83713C13.0545 8.83713 12.3257 8.10826 12.3257 7.20926C12.3257 6.31026 13.0545 5.5814 13.9535 5.5814ZM10.0001 11.3953C12.2806 11.3953 14.2945 12.5838 15.5017 14.3896C15.5827 14.4913 15.6174 14.6222 15.5975 14.7507C15.5775 14.8792 15.5047 14.9934 15.3966 15.0657C15.2886 15.1381 15.1552 15.1619 15.0289 15.1316C14.9025 15.1011 14.7946 15.0192 14.7314 14.9056C13.6841 13.3391 11.9574 12.3257 10 12.3257C8.0427 12.3257 6.3162 13.3391 5.26874 14.9056C5.20547 15.0192 5.0976 15.1011 4.97123 15.1316C4.84485 15.1619 4.71151 15.1381 4.60347 15.0657C4.49543 14.9934 4.4226 14.8792 4.40265 14.7507C4.3827 14.6222 4.41741 14.4913 4.49836 14.3896C5.70542 12.584 7.71937 11.3953 10 11.3953H10.0001Z" fill="#5630D3"/>
</svg>
