<svg width="14" height="14" viewBox="0 0 14 14" fill="none" xmlns="http://www.w3.org/2000/svg">
<path d="M12.75 0.75H1.25C0.973437 0.75 0.75 0.973437 0.75 1.25V12.75C0.75 13.0266 0.973437 13.25 1.25 13.25H12.75C13.0266 13.25 13.25 13.0266 13.25 12.75V1.25C13.25 0.973437 13.0266 0.75 12.75 0.75ZM4.75 10.625C4.75 10.6938 4.69375 10.75 4.625 10.75H3.375C3.30625 10.75 3.25 10.6938 3.25 10.625V3.375C3.25 3.30625 3.30625 3.25 3.375 3.25H4.625C4.69375 3.25 4.75 3.30625 4.75 3.375V10.625ZM7.75 6.25C7.75 6.31875 7.69375 6.375 7.625 6.375H6.375C6.30625 6.375 6.25 6.31875 6.25 6.25V3.375C6.25 3.30625 6.30625 3.25 6.375 3.25H7.625C7.69375 3.25 7.75 3.30625 7.75 3.375V6.25ZM10.75 7.375C10.75 7.44375 10.6938 7.5 10.625 7.5H9.375C9.30625 7.5 9.25 7.44375 9.25 7.375V3.375C9.25 3.30625 9.30625 3.25 9.375 3.25H10.625C10.6938 3.25 10.75 3.30625 10.75 3.375V7.375Z" fill="black"/>
</svg>
