<svg width="14" height="14" viewBox="0 0 14 14" fill="none" xmlns="http://www.w3.org/2000/svg">
<path d="M7.00782 5.10314C6.54063 5.10314 6.10313 5.28439 5.77188 5.61564C5.44219 5.94689 5.25938 6.38439 5.25938 6.85157C5.25938 7.31876 5.44219 7.75626 5.77188 8.08751C6.10313 8.4172 6.54063 8.60001 7.00782 8.60001C7.47501 8.60001 7.91251 8.4172 8.24376 8.08751C8.57344 7.75626 8.75626 7.31876 8.75626 6.85157C8.75626 6.38439 8.57344 5.94689 8.24376 5.61564C8.08197 5.4526 7.88939 5.32334 7.67722 5.23536C7.46505 5.14738 7.23751 5.10243 7.00782 5.10314ZM13.45 8.78282L12.4281 7.90939C12.4766 7.61251 12.5016 7.30939 12.5016 7.00782C12.5016 6.70626 12.4766 6.40157 12.4281 6.10626L13.45 5.23282C13.5272 5.16674 13.5825 5.07872 13.6084 4.98048C13.6344 4.88223 13.6298 4.77841 13.5953 4.68283L13.5813 4.6422C13.3 3.85578 12.8786 3.12682 12.3375 2.49064L12.3094 2.45782C12.2437 2.38056 12.1561 2.32502 12.0582 2.29852C11.9603 2.27203 11.8567 2.27581 11.7609 2.30939L10.4922 2.76095C10.0234 2.37657 9.50157 2.07345 8.93595 1.86251L8.69063 0.53595C8.67212 0.436016 8.62365 0.344079 8.55164 0.272353C8.47964 0.200627 8.38751 0.152507 8.28751 0.134387L8.24532 0.126575C7.43282 -0.0203003 6.57657 -0.0203003 5.76407 0.126575L5.72188 0.134387C5.62188 0.152507 5.52975 0.200627 5.45775 0.272353C5.38574 0.344079 5.33727 0.436016 5.31876 0.53595L5.07188 1.86876C4.51161 2.08138 3.98969 2.38377 3.52657 2.76407L2.24844 2.30939C2.15277 2.27555 2.04906 2.27162 1.95109 2.29814C1.85313 2.32465 1.76556 2.38035 1.70001 2.45782L1.67188 2.49064C1.13171 3.1275 0.710431 3.85627 0.428133 4.6422L0.41407 4.68283C0.343758 4.87814 0.40157 5.09689 0.559383 5.23282L1.59376 6.11564C1.54532 6.40939 1.52188 6.70939 1.52188 7.00626C1.52188 7.30626 1.54532 7.60626 1.59376 7.89689L0.562508 8.7797C0.485313 8.84578 0.430064 8.9338 0.404107 9.03205C0.378151 9.13029 0.382715 9.23411 0.417195 9.3297L0.431258 9.37033C0.71407 10.1563 1.13126 10.8828 1.67501 11.5219L1.70313 11.5547C1.76884 11.632 1.85642 11.6875 1.95432 11.714C2.05223 11.7405 2.15586 11.7367 2.25157 11.7031L3.5297 11.2485C3.99532 11.6313 4.51407 11.9344 5.07501 12.1438L5.32188 13.4766C5.34039 13.5765 5.38887 13.6684 5.46087 13.7402C5.53288 13.8119 5.625 13.86 5.72501 13.8781L5.7672 13.886C6.58769 14.0336 7.42795 14.0336 8.24845 13.886L8.29063 13.8781C8.39064 13.86 8.48276 13.8119 8.55477 13.7402C8.62677 13.6684 8.67525 13.5765 8.69376 13.4766L8.93907 12.15C9.50469 11.9375 10.0266 11.6359 10.4953 11.2516L11.7641 11.7031C11.8597 11.737 11.9635 11.7409 12.0614 11.7144C12.1594 11.6879 12.247 11.6322 12.3125 11.5547L12.3406 11.5219C12.8844 10.8797 13.3016 10.1563 13.5844 9.37033L13.5984 9.3297C13.6656 9.13595 13.6078 8.91876 13.45 8.78282ZM7.00782 9.59845C5.49063 9.59845 4.26095 8.36876 4.26095 6.85157C4.26095 5.33439 5.49063 4.1047 7.00782 4.1047C8.52501 4.1047 9.75469 5.33439 9.75469 6.85157C9.75469 8.36876 8.52501 9.59845 7.00782 9.59845Z" fill="black"/>
</svg>
