<svg width="14" height="14" viewBox="0 0 14 14" fill="none" xmlns="http://www.w3.org/2000/svg">
<path d="M7.00004 6.33334C7.8841 6.33334 8.73194 6.68453 9.35706 7.30965C9.98218 7.93477 10.3334 8.78262 10.3334 9.66668V13.6667H3.66671V9.66668C3.66671 8.78262 4.0179 7.93477 4.64302 7.30965C5.26814 6.68453 6.11599 6.33334 7.00004 6.33334ZM2.52537 8.33734C2.41928 8.6952 2.35661 9.06452 2.33871 9.43734L2.33337 9.66668V13.6667H0.333374V10.6667C0.333243 10.0917 0.545393 9.53697 0.92913 9.10882C1.31287 8.68066 1.84117 8.40926 2.41271 8.34668L2.52537 8.33734ZM11.4747 8.33734C12.068 8.3735 12.6251 8.63465 13.0324 9.0675C13.4398 9.50035 13.6666 10.0723 13.6667 10.6667V13.6667H11.6667V9.66668C11.6667 9.20468 11.6 8.75868 11.4747 8.33734ZM2.66671 4.33334C3.10873 4.33334 3.53266 4.50894 3.84522 4.8215C4.15778 5.13406 4.33337 5.55798 4.33337 6.00001C4.33337 6.44204 4.15778 6.86596 3.84522 7.17852C3.53266 7.49108 3.10873 7.66668 2.66671 7.66668C2.22468 7.66668 1.80076 7.49108 1.4882 7.17852C1.17564 6.86596 1.00004 6.44204 1.00004 6.00001C1.00004 5.55798 1.17564 5.13406 1.4882 4.8215C1.80076 4.50894 2.22468 4.33334 2.66671 4.33334ZM11.3334 4.33334C11.7754 4.33334 12.1993 4.50894 12.5119 4.8215C12.8244 5.13406 13 5.55798 13 6.00001C13 6.44204 12.8244 6.86596 12.5119 7.17852C12.1993 7.49108 11.7754 7.66668 11.3334 7.66668C10.8913 7.66668 10.4674 7.49108 10.1549 7.17852C9.8423 6.86596 9.66671 6.44204 9.66671 6.00001C9.66671 5.55798 9.8423 5.13406 10.1549 4.8215C10.4674 4.50894 10.8913 4.33334 11.3334 4.33334ZM7.00004 0.333344C7.70728 0.333344 8.38556 0.614295 8.88566 1.11439C9.38576 1.61449 9.66671 2.29277 9.66671 3.00001C9.66671 3.70725 9.38576 4.38553 8.88566 4.88563C8.38556 5.38573 7.70728 5.66668 7.00004 5.66668C6.2928 5.66668 5.61452 5.38573 5.11442 4.88563C4.61433 4.38553 4.33337 3.70725 4.33337 3.00001C4.33337 2.29277 4.61433 1.61449 5.11442 1.11439C5.61452 0.614295 6.2928 0.333344 7.00004 0.333344Z" fill="black"/>
</svg>
